<?xml version="1.0" encoding="UTF-8"?>
<svg version="1.1" xmlns="http://www.w3.org/2000/svg" width="256" height="256">
<path d="M0 0 C1.22610237 -0.0099852 1.22610237 -0.0099852 2.47697449 -0.02017212 C4.20248169 -0.03027128 5.92802773 -0.03498999 7.65356445 -0.03466797 C10.27426615 -0.03903136 12.89326884 -0.0753508 15.51367188 -0.11328125 C17.19660888 -0.11915223 18.87955381 -0.12311974 20.5625 -0.125 C21.33672806 -0.13937103 22.11095612 -0.15374207 22.90864563 -0.16854858 C29.57403811 -0.11342579 34.73608861 1.92577861 39.7578125 6.3359375 C40.57958984 7.3259375 40.57958984 7.3259375 41.41796875 8.3359375 C41.98386719 8.9959375 42.54976562 9.6559375 43.1328125 10.3359375 C44.50356572 12.37021474 45.0575227 13.93745861 45.48046875 16.3359375 C46.20492187 16.28953125 46.929375 16.243125 47.67578125 16.1953125 C53.8191791 15.96595898 57.75462132 15.95588379 62.48046875 20.3359375 C66.62381804 24.91542882 66.86519395 28.448663 66.62109375 34.359375 C66.5746875 35.01164062 66.52828125 35.66390625 66.48046875 36.3359375 C67.34671875 36.2534375 68.21296875 36.1709375 69.10546875 36.0859375 C73.38406011 36.40287019 75.18970215 37.61747813 78.48046875 40.3359375 C82.48046875 45.59909539 82.48046875 45.59909539 82.48046875 48.3359375 C83.55425781 48.28953125 84.62804687 48.243125 85.734375 48.1953125 C100.0357369 47.75741299 100.0357369 47.75741299 105.48046875 52.3359375 C110.38610686 57.62886283 110.59353466 61.43891687 110.48046875 68.3359375 C111.53234375 68.2740625 112.58421875 68.2121875 113.66796875 68.1484375 C118.44354692 68.383302 120.68153589 69.79399505 124.23046875 72.8359375 C127.54947105 76.81874026 126.9023008 82.46143382 126.48046875 87.3359375 C125.03323944 91.0344124 122.8965233 93.32644507 119.55810547 95.50244141 C114.87120985 97.38270717 109.56764011 96.73155427 104.60546875 96.5859375 C103.44015625 96.56789063 102.27484375 96.54984375 101.07421875 96.53125 C98.20878626 96.4842757 95.34505707 96.41860043 92.48046875 96.3359375 C92.19679443 96.95009521 91.91312012 97.56425293 91.62084961 98.19702148 C89.88158274 101.45921739 87.89243106 103.09402361 84.48046875 104.3359375 C79.78418008 104.8979189 75.14185158 104.84819011 70.41796875 104.7734375 C68.51821289 104.78407227 68.51821289 104.78407227 66.58007812 104.79492188 C60.43084137 104.75269257 56.71842689 104.68770218 51.48046875 101.3359375 C48.8238964 101.17590302 46.53888285 101.17446791 43.91796875 101.3984375 C43.21486572 101.45153076 42.5117627 101.50462402 41.78735352 101.55932617 C32.53693708 102.41306537 24.30424225 105.35717255 16.48046875 110.3359375 C22.03082078 117.11970109 28.24488902 123.19116718 34.48046875 129.3359375 C36.76460908 128.22053989 38.89131632 127.07540002 41.04296875 125.7109375 C43.48046875 124.3359375 43.48046875 124.3359375 46.48046875 124.3359375 C46.68671875 123.4490625 46.89296875 122.5621875 47.10546875 121.6484375 C49.0234412 117.02786751 51.95876862 114.59678756 56.48046875 112.3359375 C61.05799889 112.03609025 65.64428498 112.05776522 70.23046875 112.0234375 C71.50664062 111.99443359 72.7828125 111.96542969 74.09765625 111.93554688 C85.80621281 111.85610469 85.80621281 111.85610469 90.48046875 116.3359375 C92.98201204 119.44596429 94.36798434 121.41731482 94.85546875 125.3984375 C95.76872924 129.6907618 98.01728239 130.73854773 101.48046875 133.3359375 C103.342803 137.06060599 103.05177704 141.28089063 102.48046875 145.3359375 C100.80839405 148.46171893 98.69484525 150.72874925 95.48046875 152.3359375 C91.90431395 152.65654148 88.31922314 152.66032686 84.73046875 152.7109375 C83.74046875 152.74832031 82.75046875 152.78570312 81.73046875 152.82421875 C73.51206991 152.92310323 73.51206991 152.92310323 69.83984375 149.9375 C67.48046875 147.3359375 67.48046875 147.3359375 66.48046875 145.3359375 C64.58513533 144.87070687 64.58513533 144.87070687 62.41796875 144.7109375 C60.46890625 144.5253125 60.46890625 144.5253125 58.48046875 144.3359375 C57.75568672 147.33170321 57.1052235 150.31926457 56.48046875 153.3359375 C56.25875 154.18671875 56.03703125 155.0375 55.80859375 155.9140625 C55.26105078 158.61859294 54.99482814 160.61271912 55.48046875 163.3359375 C57.44618096 165.54115028 59.52483405 166.99035287 61.984375 168.62109375 C64.50073407 170.34986 66.38715723 172.12719164 68.41796875 174.3984375 C68.96324219 175.00816406 69.50851563 175.61789063 70.0703125 176.24609375 C71.79926985 178.80839896 72.54799882 181.40171554 73.48046875 184.3359375 C74.04343658 184.32483444 74.60640442 184.31373138 75.18643188 184.30229187 C81.0588592 184.19146273 86.93098829 184.11617322 92.80419922 184.0612793 C94.99442619 184.03617316 97.18456969 184.00208113 99.37451172 183.95874023 C102.52722797 183.89791843 105.67883428 183.86968827 108.83203125 183.84765625 C110.29487045 183.80894661 110.29487045 183.80894661 111.78726196 183.76945496 C116.31027584 183.76759929 119.47811418 183.82740906 123.08349609 186.74145508 C126.7920705 190.75561481 126.87064251 193.46466977 126.83984375 198.78515625 C126.26086841 202.89462254 124.48131946 204.54943327 121.48046875 207.3359375 C120.82046875 207.6659375 120.16046875 207.9959375 119.48046875 208.3359375 C118.83387842 210.33742847 118.26310979 212.36365529 117.73046875 214.3984375 C114.75569421 224.40549155 108.62111454 232.38631447 99.35762024 237.51012421 C92.15174843 240.64607111 85.62249716 240.9044119 77.8359375 240.85351562 C76.49109137 240.85894785 75.14625121 240.86607665 73.80142212 240.87475586 C70.17734066 240.89286183 66.55371892 240.8859751 62.92963028 240.87323952 C59.11998594 240.86304523 55.31037847 240.87252291 51.50073242 240.87878418 C45.10556033 240.88604202 38.71057358 240.87652212 32.31542969 240.85742188 C24.94328169 240.83565659 17.57157633 240.84270929 10.19943905 240.8647275 C3.84665381 240.88293493 -2.50599891 240.88541385 -8.85880184 240.87497282 C-12.64289024 240.8687671 -16.42677124 240.86782098 -20.21084595 240.88111877 C-23.77010227 240.89275499 -27.32879319 240.88451196 -30.88798904 240.86154175 C-32.80156955 240.85381223 -34.71519842 240.86554395 -36.62875366 240.87805176 C-48.23555128 240.76523629 -55.95809474 237.73891089 -64.32421875 229.6875 C-69.00138185 224.67744273 -71.38437 220.32331223 -72.95703125 213.6484375 C-74.25157628 208.24576981 -75.96990106 206.40199263 -80.51953125 203.3359375 C-82.3818655 199.61126901 -82.09083954 195.39098437 -81.51953125 191.3359375 C-79.84745655 188.21015607 -77.73390775 185.94312575 -74.51953125 184.3359375 C-72.30350481 184.24398131 -70.08462918 184.21843732 -67.86669922 184.22241211 C-66.84213623 184.22219307 -66.84213623 184.22219307 -65.796875 184.2219696 C-63.53512415 184.22266727 -61.27345525 184.23045285 -59.01171875 184.23828125 C-57.44516037 184.24014595 -55.87860141 184.24156961 -54.31204224 184.24256897 C-50.18563227 184.24639007 -46.05925741 184.2562169 -41.93286133 184.26727295 C-37.72347488 184.2774958 -33.51408278 184.28206847 -29.3046875 184.28710938 C-21.04295263 184.29783952 -12.7812463 184.31491108 -4.51953125 184.3359375 C-4.22981445 183.40023926 -3.94009766 182.46454102 -3.64160156 181.50048828 C-1.03865268 174.15944751 5.78341396 168.11376328 12.48046875 164.3359375 C11.49758141 152.54128939 4.60458545 145.4600542 -3.51953125 137.3359375 C-5.66005627 137.00558922 -5.66005627 137.00558922 -8.15283203 137.01708984 C-9.11367706 136.99722015 -10.07452209 136.97735046 -11.06448364 136.95687866 C-12.10410248 136.94532745 -13.14372131 136.93377625 -14.21484375 136.921875 C-15.27742401 136.90250885 -16.34000427 136.8831427 -17.43478394 136.8631897 C-20.83795068 136.80327666 -24.24115103 136.75696152 -27.64453125 136.7109375 C-29.94793165 136.67276853 -32.25131761 136.63371745 -34.5546875 136.59375 C-40.20950753 136.49756563 -45.86441408 136.41255269 -51.51953125 136.3359375 C-51.803125 136.95017578 -52.08671875 137.56441406 -52.37890625 138.19726562 C-54.11712115 141.45641855 -56.11453567 143.08702489 -59.51953125 144.3359375 C-64.19448067 144.92333399 -68.8136518 144.89379667 -73.51953125 144.8359375 C-74.77765625 144.85140625 -76.03578125 144.866875 -77.33203125 144.8828125 C-88.70660774 144.83461514 -88.70660774 144.83461514 -93.51953125 140.3359375 C-97.14786788 136.51663578 -97.82953583 133.45314744 -98.01953125 128.3359375 C-97.83494165 123.02239401 -97.1773404 120.19695827 -93.51953125 116.3359375 C-91.26953125 114.9609375 -91.26953125 114.9609375 -89.51953125 114.3359375 C-89.60203125 113.1396875 -89.68453125 111.9434375 -89.76953125 110.7109375 C-89.77748033 106.17201154 -88.1605538 104.03336908 -85.51953125 100.3359375 C-84.99412644 98.93576075 -84.51796431 97.51649945 -84.08203125 96.0859375 C-83.01563152 92.71089579 -81.81428063 89.48991866 -80.33203125 86.2734375 C-79.98785156 85.51933594 -79.64367187 84.76523438 -79.2890625 83.98828125 C-76.5761884 79.92196444 -73.04411206 76.70104445 -69.51953125 73.3359375 C-70.27572754 73.3265918 -71.03192383 73.31724609 -71.81103516 73.30761719 C-75.25618259 73.2537455 -78.69999687 73.17012909 -82.14453125 73.0859375 C-83.33433594 73.07175781 -84.52414063 73.05757813 -85.75 73.04296875 C-94.17185576 72.80772138 -98.05153358 71.98646137 -103.89453125 65.8359375 C-106.292567 60.67093741 -106.2733466 55.9357087 -105.51953125 50.3359375 C-103.24641457 45.43999388 -100.44537625 42.54407491 -95.51953125 40.3359375 C-90.83306352 40.01165067 -86.20882121 40.10468484 -81.51953125 40.3359375 C-81.60203125 39.1603125 -81.68453125 37.9846875 -81.76953125 36.7734375 C-81.76084916 31.86805862 -80.35507246 29.32102245 -77.51953125 25.3359375 C-73.53199666 21.64017374 -70.54543966 20.20692344 -65.13989258 20.22241211 C-64.25920609 20.22248764 -63.37851959 20.22256317 -62.47114563 20.22264099 C-61.5241832 20.22780228 -60.57722076 20.23296356 -59.6015625 20.23828125 C-58.62918137 20.2396962 -57.65680023 20.24111115 -56.654953 20.24256897 C-53.54728121 20.24816933 -50.43968129 20.26072188 -47.33203125 20.2734375 C-45.2259125 20.27845245 -43.11979262 20.28301537 -41.01367188 20.28710938 C-35.84893061 20.29813888 -30.68424312 20.31540375 -25.51953125 20.3359375 C-25.38804688 19.4078125 -25.2565625 18.4796875 -25.12109375 17.5234375 C-23.85050716 10.79097867 -18.99768282 6.11711488 -13.51953125 2.3359375 C-9.0977815 0.08778324 -4.85906277 0.01385947 0 0 Z M-12.51953125 57.3359375 C-11.52953125 58.3259375 -10.53953125 59.3159375 -9.51953125 60.3359375 C-8.85953125 58.6859375 -8.19953125 57.0359375 -7.51953125 55.3359375 C-9.84310636 55.15103743 -9.84310636 55.15103743 -12.51953125 57.3359375 Z M24.48046875 68.3359375 C23.16046875 70.9759375 21.84046875 73.6159375 20.48046875 76.3359375 C27.08046875 76.3359375 33.68046875 76.3359375 40.48046875 76.3359375 C39.82046875 73.6959375 39.16046875 71.0559375 38.48046875 68.3359375 C33.86046875 68.3359375 29.24046875 68.3359375 24.48046875 68.3359375 Z M-53.51953125 85.3359375 C-54.19072674 86.792192 -54.85634932 88.25101617 -55.51953125 89.7109375 C-55.89078125 90.52304688 -56.26203125 91.33515625 -56.64453125 92.171875 C-57.64448138 94.25592183 -57.64448138 94.25592183 -57.51953125 96.3359375 C-56.57851562 96.36171875 -55.6375 96.3875 -54.66796875 96.4140625 C-41.85792604 96.99754271 -41.85792604 96.99754271 -37.51953125 101.3359375 C-35.97184302 103.61828786 -34.75878989 105.85742021 -33.51953125 108.3359375 C-30.87953125 108.3359375 -28.23953125 108.3359375 -25.51953125 108.3359375 C-25.59171875 107.39492187 -25.66390625 106.45390625 -25.73828125 105.484375 C-25.83109375 104.23914063 -25.92390625 102.99390625 -26.01953125 101.7109375 C-26.11234375 100.48117188 -26.20515625 99.25140625 -26.30078125 97.984375 C-26.49437194 94.75555893 -26.55932464 91.56915075 -26.51953125 88.3359375 C-27.15979248 88.31611816 -27.80005371 88.29629883 -28.4597168 88.27587891 C-31.37588405 88.18030149 -34.29136697 88.07075536 -37.20703125 87.9609375 C-38.21443359 87.93 -39.22183594 87.8990625 -40.25976562 87.8671875 C-41.23623047 87.82851562 -42.21269531 87.78984375 -43.21875 87.75 C-44.11424561 87.7185791 -45.00974121 87.6871582 -45.93237305 87.65478516 C-48.73545632 87.30932637 -50.95217656 86.48912282 -53.51953125 85.3359375 Z " fill="#010100" transform="translate(121.51953125,7.6640625)"/>
<path d="M0 0 C58.08 0 116.16 0 176 0 C172.58013329 11.3995557 172.58013329 11.3995557 169.5 14.8125 C168.9121875 15.49957031 168.324375 16.18664062 167.71875 16.89453125 C159.36127744 23.36676934 151.11235137 24.73346135 140.77685547 24.63110352 C139.5022345 24.63825882 138.22761353 24.64541412 136.91436768 24.65278625 C133.45144422 24.67114331 129.98930057 24.65846454 126.52641058 24.63869596 C122.88447163 24.62218376 119.24257723 24.63113935 115.60061646 24.63621521 C109.48964122 24.64072112 103.37897358 24.62495748 97.26806641 24.59692383 C90.2224788 24.56484976 83.17744474 24.56490357 76.1318177 24.5821386 C69.32567394 24.59804817 62.51973139 24.59124364 55.71359634 24.57420158 C52.82941392 24.56736389 49.94539439 24.56832937 47.06121445 24.57574654 C43.02861976 24.58488987 38.99686789 24.56077946 34.96435547 24.53344727 C33.77969696 24.53997314 32.59503845 24.54649902 31.3744812 24.55322266 C21.30549315 24.43749927 14.12555295 21.79807305 6.7265625 14.9296875 C2.68551007 10.41321714 1.17662295 5.88311477 0 0 Z " fill="#7F7F7F" transform="translate(56,216)"/>
<path d="M0 0 C2.64 0 5.28 0 8 0 C8.14695312 1.10408203 8.14695312 1.10408203 8.296875 2.23046875 C9.19625589 8.09970438 10.09217581 11.41841302 14 16 C13.61299958 22.65868364 8.45584831 27.46684201 4 32 C1.98401055 33.3282241 0.09402058 34.26103776 -2.13671875 35.1640625 C-5.23566147 36.55436385 -7.48958487 38.74062639 -10 41 C-8.68 42.32 -7.36 43.64 -6 45 C-2.74586483 43.88139104 -0.12576485 42.43447623 2.6875 40.5 C11.27608786 35.09155617 21.30568257 35.73832856 31.125 35.875 C32.36765625 35.88402344 33.6103125 35.89304688 34.890625 35.90234375 C37.92729004 35.92570271 40.96353853 35.95845717 44 36 C44 38.64 44 41.28 44 44 C43.35675781 44.02578125 42.71351563 44.0515625 42.05078125 44.078125 C28.17690405 44.94895324 14.48145342 49.60283487 4 59 C4.46591957 63.76197203 5.45901626 66.10936925 8.75 69.5625 C9.54664063 70.41199219 10.34328125 71.26148437 11.1640625 72.13671875 C13.24388054 74.26548254 15.37577869 76.33437823 17.5234375 78.39453125 C18.11930664 78.97195068 18.71517578 79.54937012 19.32910156 80.14428711 C20.51439695 81.28655994 21.71155673 82.41666393 22.92089844 83.53344727 C24.5703125 85.1171875 24.5703125 85.1171875 27 88 C26.71435547 89.99267578 26.71435547 89.99267578 26 92 C25.505 93.485 25.505 93.485 25 95 C26.98 95.66 28.96 96.32 31 97 C31.67546875 96.21753906 32.3509375 95.43507813 33.046875 94.62890625 C33.9474593 93.60636783 34.8485264 92.58425449 35.75 91.5625 C36.1934375 91.04623047 36.636875 90.52996094 37.09375 89.99804688 C39.52915356 87.25821787 41.24061317 85.34256095 45 85 C47.10546875 87.5 47.10546875 87.5 49 91 C48.65543708 93.97222974 48.20706131 96.20875886 47.3125 99 C46.91076668 100.37441881 46.51099408 101.7494124 46.11328125 103.125 C45.92548096 103.72570312 45.73768066 104.32640625 45.54418945 104.9453125 C44.84427023 107.58798643 44.44943245 110.30340531 44 113 C35.75 113 27.5 113 19 113 C18.01 109.7 17.02 106.4 16 103 C14.41005725 99.31637026 12.317229 96.26811926 10 93 C8.94171997 91.47463623 8.94171997 91.47463623 7.86206055 89.91845703 C3.63275067 84.51602638 -0.31434317 80.92381818 -7.28881836 79.93603516 C-13.44603681 79.45358709 -19.58204551 79.59051648 -25.75 79.75 C-27.91143486 79.76199356 -30.07290708 79.76855055 -32.234375 79.76953125 C-37.49165465 79.78363356 -42.74450722 79.86499687 -48 80 C-45.80803321 78.34902927 -43.60824731 76.72017665 -41.375 75.125 C-38.52838882 72.89469171 -38.52838882 72.89469171 -37 68 C-27.43 68 -17.86 68 -8 68 C-8 65.36 -8 62.72 -8 60 C-11.63 60 -15.26 60 -19 60 C-21.8040617 52.57091222 -22.1644946 44.88164865 -19.875 37.25 C-16.58431298 31.54614251 -12.97642453 26.21264321 -8.875 21.0625 C-4.1536375 14.85798698 -1.94699321 7.46347398 0 0 Z " fill="#B98B5B" transform="translate(124,56)"/>
<path d="M0 0 C1.37488335 -0.00855011 1.37488335 -0.00855011 2.77754211 -0.01727295 C4.72367187 -0.02674131 6.6698178 -0.03326418 8.6159668 -0.03710938 C11.58345965 -0.04677784 14.55024913 -0.07776827 17.51757812 -0.109375 C19.40754797 -0.11590855 21.29752277 -0.12115764 23.1875 -0.125 C24.07209396 -0.1373468 24.95668793 -0.1496936 25.86808777 -0.16241455 C30.96016801 -0.14416084 34.5482501 0.30317519 38.92578125 3.203125 C41.21591778 6.6383298 41.10421098 8.188456 40.92578125 12.203125 C39.97316406 12.24050781 39.02054688 12.27789062 38.0390625 12.31640625 C36.15767578 12.41501953 36.15767578 12.41501953 34.23828125 12.515625 C32.99691406 12.57363281 31.75554687 12.63164063 30.4765625 12.69140625 C26.94934772 12.96397754 26.94934772 12.96397754 24.39453125 14.734375 C21.15269305 16.66306355 18.8509285 16.50388704 15.11328125 16.390625 C13.37111328 16.35001953 13.37111328 16.35001953 11.59375 16.30859375 C10.71332031 16.27378906 9.83289063 16.23898438 8.92578125 16.203125 C8.92578125 18.843125 8.92578125 21.483125 8.92578125 24.203125 C11.34365245 24.31138789 13.75665681 24.39052289 16.17578125 24.453125 C16.85769531 24.48664063 17.53960937 24.52015625 18.2421875 24.5546875 C20.53575469 24.64117321 20.53575469 24.64117321 23.92578125 24.203125 C24.85245605 23.21638794 24.85245605 23.21638794 25.79785156 22.2097168 C28.53477844 19.62885379 29.93331744 19.70016084 33.64453125 19.70703125 C34.74152344 19.70638672 35.83851563 19.70574219 36.96875 19.70507812 C38.10957031 19.72505859 39.25039062 19.74503906 40.42578125 19.765625 C41.56660156 19.75853516 42.70742187 19.75144531 43.8828125 19.74414062 C53.14723695 19.81490297 53.14723695 19.81490297 56.92578125 23.203125 C56.61328125 26.578125 56.61328125 26.578125 55.92578125 30.203125 C52.41661423 32.54256968 51.01081994 32.43197734 46.8671875 32.40625 C45.67673828 32.41785156 44.48628906 32.42945313 43.25976562 32.44140625 C40.74934892 32.44920661 38.23883471 32.44144186 35.72851562 32.41796875 C32.36156562 32.46531364 29.2304507 32.55106193 25.92578125 33.203125 C23.17021333 35.98914008 23.17021333 35.98914008 21.92578125 39.203125 C17.48617256 40.68299456 13.13900972 40.42810427 8.48828125 40.453125 C7.53373047 40.47375 6.57917969 40.494375 5.59570312 40.515625 C4.67466797 40.52078125 3.75363281 40.5259375 2.8046875 40.53125 C1.96494385 40.5405957 1.1252002 40.54994141 0.26000977 40.55957031 C-2.60077146 40.12271846 -3.96313317 39.14780353 -6.07421875 37.203125 C-6.75390625 35.265625 -6.75390625 35.265625 -6.94921875 33.203125 C-7.02914062 32.5225 -7.1090625 31.841875 -7.19140625 31.140625 C-7.07421875 29.203125 -7.07421875 29.203125 -5.07421875 26.203125 C-4.90708306 23.57780976 -4.90708306 23.57780976 -5.07421875 21.203125 C-5.62851563 20.96078125 -6.1828125 20.7184375 -6.75390625 20.46875 C-7.84058594 19.96601562 -7.84058594 19.96601562 -8.94921875 19.453125 C-9.66851562 19.12828125 -10.3878125 18.8034375 -11.12890625 18.46875 C-13.46551822 16.94854462 -14.11288584 15.79433198 -15.07421875 13.203125 C-15.51171875 9.765625 -15.51171875 9.765625 -15.07421875 6.203125 C-12.63671875 3.328125 -12.63671875 3.328125 -10.07421875 1.203125 C-7.92216116 -0.94893259 -2.98686524 0.01418755 0 0 Z " fill="#78B254" transform="translate(183.07421875,63.796875)"/>
<path d="M0 0 C1.0908318 0.0023229 1.0908318 0.0023229 2.2037006 0.00469273 C2.97085174 0.00242718 3.73800288 0.00016162 4.52840102 -0.00217259 C7.11871463 -0.00854148 9.70897631 -0.00768139 12.29929692 -0.00685817 C14.14839327 -0.00984786 15.997489 -0.01324994 17.8465839 -0.01703578 C22.88369174 -0.02589924 27.92078261 -0.02821487 32.95789748 -0.02885157 C37.1554804 -0.02979868 41.35305932 -0.03347468 45.5506407 -0.03702366 C55.44960888 -0.04517709 65.34856796 -0.04760708 75.2475391 -0.04689723 C85.47618862 -0.04629616 95.70478544 -0.0568518 105.93342161 -0.0726409 C114.70028197 -0.08569387 123.46712507 -0.09108208 132.23399508 -0.09044182 C137.47667185 -0.09018618 142.71930182 -0.09307377 147.96196896 -0.10361987 C152.89077687 -0.11326327 157.8194929 -0.11340604 162.74830395 -0.10610324 C164.56159304 -0.1050527 166.37488774 -0.10744785 168.18816715 -0.1134637 C170.65512485 -0.12112075 173.12176019 -0.11658101 175.58871037 -0.10883266 C176.31370084 -0.11397622 177.03869132 -0.11911978 177.78565121 -0.12441921 C182.73142607 -0.08986574 182.73142607 -0.08986574 184.95969731 2.1384055 C184.40414175 6.69396106 184.40414175 6.69396106 182.95969731 8.1384055 C180.53580022 8.24051584 178.14024458 8.2772813 175.71569401 8.27211827 C174.94854287 8.27438383 174.18139174 8.27664938 173.3909936 8.27898359 C170.80067999 8.28535248 168.21041831 8.28449239 165.6200977 8.28366917 C163.77100134 8.28665886 161.92190561 8.29006095 160.07281071 8.29384679 C155.03570287 8.30271024 149.99861201 8.30502588 144.96149713 8.30566257 C140.76391421 8.30660969 136.56633529 8.31028568 132.36875391 8.31383467 C122.46978573 8.3219881 112.57082666 8.32441809 102.67185551 8.32370824 C92.443206 8.32310716 82.21460917 8.33366281 71.985973 8.3494519 C63.21911264 8.36250488 54.45226954 8.36789308 45.68539953 8.36725283 C40.44272276 8.36699718 35.20009279 8.36988477 29.95742565 8.38043088 C25.02861774 8.39007427 20.09990171 8.39021704 15.17109066 8.38291425 C13.35780157 8.38186371 11.54450687 8.38425885 9.73122746 8.3902747 C7.26426977 8.39793175 4.79763443 8.39339201 2.33068424 8.38564366 C1.60569377 8.39078722 0.88070329 8.39593079 0.13374341 8.40123022 C-4.81203145 8.36667674 -4.81203145 8.36667674 -7.04030269 6.1384055 C-6.34928425 0.4720543 -5.60951786 0.02758785 0 0 Z " fill="#4C4C4C" transform="translate(55.04030269384384,199.8615944981575)"/>
<path d="M0 0 C0.71540955 -0.00570007 1.43081909 -0.01140015 2.16790771 -0.01727295 C3.68435182 -0.0267257 5.20081648 -0.03325803 6.71728516 -0.03710938 C9.02413473 -0.04677967 11.3300797 -0.07778397 13.63671875 -0.109375 C15.11197389 -0.11590889 16.58723539 -0.12115784 18.0625 -0.125 C18.7470929 -0.1373468 19.43168579 -0.1496936 20.13702393 -0.16241455 C25.42841845 -0.1381249 29.53021347 1.08721531 33.44140625 4.73828125 C37.60748944 10.18623619 37.90504655 12.4964891 37.796875 19.203125 C40.436875 19.533125 43.076875 19.863125 45.796875 20.203125 C45.796875 18.883125 45.796875 17.563125 45.796875 16.203125 C53.99476353 16.54685198 53.99476353 16.54685198 56.859375 18.890625 C58.04370521 21.81197286 58.07449344 24.07991756 57.796875 27.203125 C55.79180955 29.20819045 51.75284405 28.3878439 49 28.4140625 C47.38540673 28.44214292 45.77082354 28.47080746 44.15625 28.5 C41.6041708 28.54119421 39.05227723 28.57806907 36.5 28.60449219 C34.04126769 28.63217202 31.58339803 28.67805675 29.125 28.7265625 C27.98723114 28.7314418 27.98723114 28.7314418 26.82647705 28.73641968 C22.23961352 28.84237938 19.56908297 29.65248155 15.796875 32.203125 C12.24609375 32.49609375 12.24609375 32.49609375 8.484375 32.390625 C7.23011719 32.36355469 5.97585937 32.33648437 4.68359375 32.30859375 C3.73097656 32.27378906 2.77835938 32.23898438 1.796875 32.203125 C1.64992188 31.33300781 1.64992188 31.33300781 1.5 30.4453125 C0.50226561 25.23301043 -0.60345453 21.27643632 -4.203125 17.203125 C-8.23906347 14.56326588 -12.39098406 12.80464262 -17.203125 12.203125 C-17.1190047 9.34303465 -16.63493761 7.65663673 -14.6484375 5.5703125 C-9.60978943 1.24251105 -6.66459529 0.04088947 0 0 Z " fill="#78B254" transform="translate(122.203125,15.796875)"/>
<path d="M0 0 C0.80232056 -0.00004028 1.60464111 -0.00008057 2.43127441 -0.00012207 C4.12239443 0.00522359 5.8135146 0.02276578 7.50439453 0.05175781 C10.08573724 0.09362006 12.66446867 0.09282315 15.24609375 0.0859375 C16.89324721 0.09643096 18.54038728 0.10936992 20.1875 0.125 C21.3392572 0.12530212 21.3392572 0.12530212 22.51428223 0.12561035 C27.01939206 0.22458796 30.03976602 0.75005426 33.59375 3.59375 C33.97789063 4.47804687 34.36203125 5.36234375 34.7578125 6.2734375 C36.32918719 8.79311846 36.32918719 8.79311846 38.70996094 8.94628906 C41.47729878 8.97857641 44.20587931 8.87929519 46.96875 8.71875 C58.44465691 8.14026423 58.44465691 8.14026423 62.59375 11.59375 C65.56498542 14.48468176 66.51261943 15.94470543 67.03125 20.09375 C66.41461829 25.02680369 64.40776528 28.41540393 60.59375 31.59375 C56.49448038 32.96017321 52.63942365 32.93673214 48.34375 33.03125 C47.50972656 33.07701172 46.67570312 33.12277344 45.81640625 33.16992188 C41.34567521 33.25063366 38.28853826 32.88323681 34.671875 30.12890625 C31.02447083 26.58269988 29.7288866 22.45862113 28.59375 17.59375 C27.49909424 17.58964111 26.40443848 17.58553223 25.27661133 17.58129883 C21.20403355 17.55947948 17.13241809 17.50516169 13.06030273 17.44116211 C11.29998009 17.41800636 9.53951939 17.40359206 7.77905273 17.39819336 C5.24375621 17.38888558 2.71062372 17.34785952 0.17578125 17.30078125 C-0.99950386 17.30668022 -0.99950386 17.30668022 -2.1985321 17.31269836 C-6.39541455 17.20135198 -7.98516568 16.92483471 -11.40356445 14.23706055 C-13.40625 11.59375 -13.40625 11.59375 -14.03125 8.59375 C-12.4447375 0.97849 -6.89259428 -0.14717412 0 0 Z " fill="#78B354" transform="translate(37.40625,55.40625)"/>
<path d="M0 0 C1.53222954 -0.01441132 1.53222954 -0.01441132 3.09541321 -0.02911377 C4.75010872 -0.03548859 4.75010872 -0.03548859 6.43823242 -0.04199219 C7.57395187 -0.04769226 8.70967133 -0.05339233 9.87980652 -0.05926514 C12.28477038 -0.06871672 14.68974721 -0.07524974 17.09472656 -0.07910156 C20.76870405 -0.08880119 24.44212077 -0.11982145 28.1159668 -0.15136719 C30.45255202 -0.15789791 32.78914124 -0.16314811 35.12573242 -0.16699219 C36.22279007 -0.17933899 37.31984772 -0.19168579 38.45014954 -0.20440674 C43.99989478 -0.1882513 48.26779684 -0.13463009 52.98120117 3.16113281 C55.49487004 6.93163612 55.11926242 8.67264871 54.52807617 13.00097656 C53.76702104 16.00714432 52.49002046 17.39020155 49.98120117 19.16113281 C44.9186213 20.84865944 39.62492164 20.50434073 34.32202148 20.56616211 C32.93504882 20.58770197 31.54821064 20.62175908 30.16186523 20.66870117 C17.15981265 21.10427303 17.15981265 21.10427303 12.71557617 17.19628906 C12.23830078 16.65496338 11.76102539 16.1136377 11.26928711 15.5559082 C8.8140201 12.89727658 5.71266775 12.99629374 2.31323242 12.84472656 C1.42055664 12.80283203 0.52788086 12.7609375 -0.3918457 12.71777344 C-1.32061523 12.67845703 -2.24938477 12.63914062 -3.20629883 12.59863281 C-4.14666992 12.55544922 -5.08704102 12.51226562 -6.0559082 12.46777344 C-8.37672737 12.36174617 -10.69765208 12.25968252 -13.01879883 12.16113281 C-13.30786133 6.51269531 -13.30786133 6.51269531 -10.70629883 3.34863281 C-7.071281 0.38989737 -4.53972655 0.03447913 0 0 Z " fill="#689948" transform="translate(61.018798828125,35.8388671875)"/>
<path d="M0 0 C1.26972656 0.00257812 2.53945313 0.00515625 3.84765625 0.0078125 C5.16636719 0.03617187 6.48507813 0.06453125 7.84375 0.09375 C9.16246094 0.09117188 10.48117188 0.08859375 11.83984375 0.0859375 C22.77449158 0.19694915 22.77449158 0.19694915 27.34375 3.59375 C28.74832737 6.40290474 28.59270157 8.48185534 28.34375 11.59375 C26.56390595 14.7296657 25.82066793 15.43477736 22.34375 16.59375 C20.93550107 16.67396999 19.52377769 16.70140977 18.11328125 16.69140625 C17.31083984 16.68818359 16.50839844 16.68496094 15.68164062 16.68164062 C14.43157227 16.66907227 14.43157227 16.66907227 13.15625 16.65625 C12.31126953 16.65173828 11.46628906 16.64722656 10.59570312 16.64257812 C8.51168845 16.63080403 6.42771023 16.6128689 4.34375 16.59375 C4.34375 19.23375 4.34375 21.87375 4.34375 24.59375 C6.98375 24.59375 9.62375 24.59375 12.34375 24.59375 C10.86885872 30.2474999 10.86885872 30.2474999 8.56616211 31.76586914 C4.46712867 33.29281876 0.23437044 33.00469711 -4.09375 33.03125 C-5.03541016 33.06412109 -5.97707031 33.09699219 -6.94726562 33.13085938 C-11.65471229 33.16740272 -13.91687943 33.14804659 -17.77734375 30.25390625 C-19.65625 27.59375 -19.65625 27.59375 -20.28125 24.59375 C-19.22903935 19.5431389 -15.78872231 17.34873154 -11.65625 14.59375 C-11.52295409 12.33216272 -11.78705405 10.22945326 -12.0390625 7.98046875 C-11.00592964 1.53920166 -5.76149992 -0.03530724 0 0 Z " fill="#78B253" transform="translate(51.65625,111.40625)"/>
<path d="M0 0 C5.60768562 3.61138967 10.18483433 7.40873116 13.18359375 13.40625 C-6.61640625 13.40625 -26.41640625 13.40625 -46.81640625 13.40625 C-36.6031573 -1.91362343 -17.35347732 -8.42109818 0 0 Z " fill="#78B253" transform="translate(172.81640625,178.59375)"/>
<path d="M0 0 C0.93714844 -0.00257812 1.87429687 -0.00515625 2.83984375 -0.0078125 C7.76915432 0.0621068 11.60085829 0.13146314 15.5 3.5 C16.3125 6.1875 16.3125 6.1875 16.5 8.5 C15.18 8.5 13.86 8.5 12.5 8.5 C12.5 11.14 12.5 13.78 12.5 16.5 C13.19867188 16.47679687 13.89734375 16.45359375 14.6171875 16.4296875 C15.52726562 16.41164062 16.43734375 16.39359375 17.375 16.375 C18.73238281 16.34019531 18.73238281 16.34019531 20.1171875 16.3046875 C22.5 16.5 22.5 16.5 24.5 18.5 C23.94444444 23.05555556 23.94444444 23.05555556 22.5 24.5 C19.84177343 24.62658222 17.22112576 24.68520214 14.5625 24.6875 C13.82064453 24.69974609 13.07878906 24.71199219 12.31445312 24.72460938 C10.37486371 24.72988478 8.4357629 24.62188902 6.5 24.5 C4.27810176 22.27810176 3.57401108 20.41517292 2.5 17.5 C1.61957031 17.48582031 0.73914063 17.47164062 -0.16796875 17.45703125 C-9.63978495 17.06806654 -9.63978495 17.06806654 -13.8125 14.3125 C-15.84799275 10.92001209 -16.30870757 9.38179633 -15.5 5.5 C-11.21480223 -0.54550722 -6.81863823 -0.20634118 0 0 Z " fill="#78B253" transform="translate(191.5,127.5)"/>
<path d="M0 0 C0.97988892 -0.00004028 1.95977783 -0.00008057 2.96936035 -0.00012207 C5.03709339 0.00522942 7.10482616 0.0227962 9.17236328 0.05175781 C12.33299075 0.09360754 15.49148593 0.09282497 18.65234375 0.0859375 C20.66407727 0.09643071 22.67579983 0.10936952 24.6875 0.125 C25.63032837 0.12520142 26.57315674 0.12540283 27.54455566 0.12561035 C32.42137805 0.21335095 35.90877868 0.35924478 39.84375 3.59375 C39.84375 3.92375 39.84375 4.25375 39.84375 4.59375 C38.90692383 4.59991333 38.90692383 4.59991333 37.95117188 4.60620117 C35.08111392 4.63939485 32.21310713 4.71006366 29.34375 4.78125 C28.36148438 4.78705078 27.37921875 4.79285156 26.3671875 4.79882812 C19.73133188 4.99790379 14.83488579 6.00864965 9.84375 10.59375 C9.18246094 11.67269531 8.52117187 12.75164062 7.83984375 13.86328125 C5.84375 16.59375 5.84375 16.59375 2.12890625 17.35546875 C0.72115228 17.36207792 -0.68706077 17.33638914 -2.09375 17.28125 C-3.14852539 17.30348633 -3.14852539 17.30348633 -4.22460938 17.32617188 C-8.17375399 17.26325205 -10.00833799 16.71126112 -13.12109375 14.23828125 C-15.15625 11.59375 -15.15625 11.59375 -15.78125 8.59375 C-13.97743945 -0.06454066 -7.37817336 -0.12830235 0 0 Z " fill="#679847" transform="translate(155.15625,51.40625)"/>
<path d="M0 0 C1.26744806 2.964663 0.98362088 4.04344263 -0.1796875 7.12890625 C-0.73914062 8.26199219 -1.29859375 9.39507812 -1.875 10.5625 C-4.15158856 15.19376644 -4.15158856 15.19376644 -6 20 C-8.64 20 -11.28 20 -14 20 C-11.91075601 11.64302404 -6.07623914 5.78689442 0 0 Z " fill="#B28658" transform="translate(61,84)"/>
</svg>
